<?xml version="1.0" encoding="UTF-8"?>
<!DOCTYPE svg PUBLIC "-//W3C//DTD SVG 1.1//EN" "http://www.w3.org/Graphics/SVG/1.1/DTD/svg11.dtd">
<!-- Creator: CorelDRAW 2018 (64 Bit Versión de evaluación) -->
<svg xmlns="http://www.w3.org/2000/svg" xml:space="preserve" width="79.375mm" height="78.9111mm" version="1.1" style="shape-rendering:geometricPrecision; text-rendering:geometricPrecision; image-rendering:optimizeQuality; fill-rule:evenodd; clip-rule:evenodd"
viewBox="0 0 2829.3 2812.76"
 xmlns:xlink="http://www.w3.org/1999/xlink">
 <defs>
  <style type="text/css">
   <![CDATA[
    .fil0 {fill:white}
   ]]>
  </style>
 </defs>
 <g id="Capa_x0020_1">
  <metadata id="CorelCorpID_0Corel-Layer"/>
  <path class="fil0" d="M967.98 271.36c438.57,-61.8 830.74,270.15 882.67,696.17 53.59,439.69 -262.28,827.73 -691.49,882.28 -440.88,56.03 -829.8,-255.53 -886.88,-687.95 -59.96,-454.24 256.99,-828.67 695.71,-890.49zm-967.98 666.26l0 210.29c52.05,143.8 18.45,277.82 202.81,535.53 104.73,146.4 239.6,253.38 408.13,334.94 346.15,167.52 846.17,125.84 1118.43,-139.22 19.4,138.21 64.72,140.47 226.15,302.35l534.53 534.37c115.54,114.38 220.87,153.21 339.25,-27.9l0 -74.18c-106.64,-171.77 -481.27,-517.01 -660.63,-695.72 -85.99,-85.67 -134.11,-163.44 -269.26,-186.59 34.31,-75.66 93.72,-144.48 133.98,-239.25 198.15,-466.39 48.82,-1008.22 -357.5,-1294.61 -254.18,-179.16 -385.71,-146.12 -527.99,-197.62l-210.29 0c-78.79,36.94 -153.43,14.8 -356.5,115.62 -107.38,53.31 -188.3,118.54 -267.63,197.87 -290.94,290.95 -265.29,521.5 -313.49,624.13z"/>
 </g>
</svg>
